<svg width="430" height="162" viewBox="0 0 430 162" fill="none" xmlns="http://www.w3.org/2000/svg">
<path d="M8.57498 141.929V159.792H0V111.204H16.221C21.1278 111.204 24.8912 112.467 27.5114 114.991C30.1791 117.468 31.513 120.803 31.513 124.995V128.067C31.513 130.83 30.9175 133.259 29.7266 135.355C28.5356 137.451 26.8206 139.047 24.5816 140.142C28.488 146.811 31.8227 153.361 34.5857 159.792H24.796C22.414 153.837 19.5795 147.883 16.2925 141.929H8.57498ZM16.221 119.064H8.57498V134.069H16.221C18.3171 134.069 19.913 133.545 21.0087 132.497C22.152 131.401 22.7237 129.925 22.7237 128.067V124.995C22.7237 123.185 22.152 121.755 21.0087 120.708C19.913 119.612 18.3171 119.064 16.221 119.064Z" fill="#F886D1"/>
<path d="M69.9843 157.719C67.5071 158.72 65.1728 159.434 62.9814 159.863C60.79 160.292 58.7177 160.506 56.7645 160.506C51.3814 160.506 47.3083 158.982 44.5452 155.933C41.7822 152.885 40.4006 148.836 40.4006 143.786V139.499C40.4006 136.117 41.0199 133.188 42.2585 130.711C43.4972 128.234 45.2598 126.305 47.5464 124.923C49.8331 123.542 52.5247 122.851 55.6212 122.851C58.1461 122.851 60.5042 123.375 62.6956 124.423C64.9346 125.423 66.7449 127.019 68.1264 129.21C69.5556 131.354 70.2701 134.117 70.2701 137.499C70.2701 138.499 70.1987 139.571 70.0558 140.714C69.9128 141.81 69.6746 142.977 69.3412 144.215H48.3325C48.4278 147.168 49.1662 149.383 50.5477 150.86C51.9292 152.337 54.1444 153.075 57.1933 153.075C58.813 153.075 60.4804 152.885 62.1954 152.503C63.958 152.122 65.7683 151.551 67.6262 150.789L69.9843 157.719ZM55.6212 129.782C53.4298 129.782 51.7148 130.496 50.4762 131.925C49.2853 133.307 48.5945 135.307 48.4039 137.927H62.1239C62.1715 137.689 62.1954 137.475 62.1954 137.284C62.1954 137.046 62.1954 136.832 62.1954 136.641C62.1954 134.355 61.5522 132.64 60.266 131.497C58.9797 130.353 57.4315 129.782 55.6212 129.782Z" fill="#F886D1"/>
<path d="M89.8843 153.361C91.6469 153.361 93.0999 153.075 94.2432 152.503C95.3865 151.884 95.9582 150.979 95.9582 149.788C95.9582 148.74 95.5771 147.931 94.8149 147.359C94.1003 146.74 92.7902 146.192 90.8847 145.716L86.8116 144.644C83.6674 143.834 81.3331 142.476 79.8087 140.571C78.3319 138.666 77.5935 136.403 77.5935 133.783C77.5935 130.687 78.6653 128.091 80.8091 125.995C82.9528 123.899 86.2637 122.851 90.7418 122.851C92.552 122.851 94.4576 123.065 96.4584 123.494C98.4592 123.923 100.555 124.614 102.747 125.566L100.389 132.568C98.3878 131.616 96.5775 130.949 94.9578 130.568C93.3381 130.187 91.9089 129.996 90.6703 129.996C87.288 129.996 85.5968 131.139 85.5968 133.426C85.5968 134.331 85.8826 135.045 86.4543 135.569C87.0736 136.093 88.1931 136.57 89.8128 136.998L93.8859 138.07C97.3636 138.975 99.8884 140.357 101.46 142.214C103.08 144.072 103.89 146.406 103.89 149.217C103.89 152.551 102.747 155.266 100.46 157.362C98.221 159.458 94.672 160.506 89.8128 160.506C85.6682 160.506 81.3093 159.553 76.736 157.648L78.9512 150.86C81.1902 151.765 83.2148 152.408 85.0251 152.789C86.8354 153.17 88.4551 153.361 89.8843 153.361Z" fill="#F886D1"/>
<path d="M118.614 139.571V143.786C118.614 146.835 119.162 149.121 120.258 150.646C121.354 152.17 123.116 152.932 125.546 152.932C126.737 152.932 128.071 152.789 129.547 152.503C131.072 152.17 132.715 151.67 134.478 151.003L136.836 157.934C134.692 158.791 132.668 159.434 130.762 159.863C128.857 160.292 126.975 160.506 125.117 160.506C120.353 160.506 116.709 158.982 114.184 155.933C111.659 152.885 110.397 148.836 110.397 143.786V139.571C110.397 134.474 111.659 130.425 114.184 127.424C116.709 124.375 120.353 122.851 125.117 122.851C126.927 122.851 128.761 123.065 130.619 123.494C132.477 123.923 134.43 124.542 136.479 125.352L134.121 132.426C130.691 131.092 127.832 130.425 125.546 130.425C123.116 130.425 121.354 131.187 120.258 132.711C119.162 134.188 118.614 136.474 118.614 139.571Z" fill="#F886D1"/>
<path d="M165.937 159.792V155.004C163.746 156.91 161.697 158.315 159.792 159.22C157.886 160.077 155.957 160.506 154.003 160.506C150.764 160.506 148.263 159.41 146.5 157.219C144.738 154.98 143.856 151.86 143.856 147.859V123.566H152.074V146.859C152.074 150.86 153.551 152.861 156.504 152.861C157.695 152.861 158.982 152.575 160.363 152.003C161.792 151.432 163.507 150.336 165.508 148.717V123.566H173.726V159.792H165.937Z" fill="#F886D1"/>
<path d="M212.552 157.719C210.074 158.72 207.74 159.434 205.549 159.863C203.357 160.292 201.285 160.506 199.332 160.506C193.949 160.506 189.876 158.982 187.113 155.933C184.349 152.885 182.968 148.836 182.968 143.786V139.499C182.968 136.117 183.587 133.188 184.826 130.711C186.064 128.234 187.827 126.305 190.114 124.923C192.4 123.542 195.092 122.851 198.189 122.851C200.713 122.851 203.072 123.375 205.263 124.423C207.502 125.423 209.312 127.019 210.694 129.21C212.123 131.354 212.837 134.117 212.837 137.499C212.837 138.499 212.766 139.571 212.623 140.714C212.48 141.81 212.242 142.977 211.908 144.215H190.9C190.995 147.168 191.733 149.383 193.115 150.86C194.497 152.337 196.712 153.075 199.761 153.075C201.38 153.075 203.048 152.885 204.763 152.503C206.525 152.122 208.336 151.551 210.194 150.789L212.552 157.719ZM198.189 129.782C195.997 129.782 194.282 130.496 193.044 131.925C191.853 133.307 191.162 135.307 190.971 137.927H204.691C204.739 137.689 204.763 137.475 204.763 137.284C204.763 137.046 204.763 136.832 204.763 136.641C204.763 134.355 204.12 132.64 202.833 131.497C201.547 130.353 199.999 129.782 198.189 129.782Z" fill="#F886D1"/>
<path fill-rule="evenodd" clip-rule="evenodd" d="M242.97 18.4407C249.289 18.4407 254.43 24.0702 254.43 30.9901V77.0898C254.43 84.0092 249.289 89.6391 242.97 89.6391H184.037C177.719 89.6391 172.578 84.0092 172.578 77.0898V30.9901C172.578 24.0702 177.719 18.4407 184.037 18.4407H192.456C193.102 18.4407 193.626 17.8681 193.626 17.1596V12.5494C193.626 5.62996 198.766 0 205.085 0H221.923C228.241 0 233.382 5.62996 233.382 12.5494V17.1597C233.382 17.8682 233.906 18.4408 234.552 18.4408L242.97 18.4407ZM242.97 82.9801C245.936 82.9801 248.349 80.337 248.349 77.0898V64.6796C247.879 65.0364 247.258 65.2535 246.579 65.2535H231.472C230.756 65.2535 230.117 64.8729 229.876 64.3017L223.837 50.0158C223.781 49.8519 223.657 49.7067 223.484 49.603C223.311 49.4993 223.098 49.4427 222.879 49.4422C222.66 49.4416 222.447 49.4972 222.273 49.6C222.099 49.7029 221.974 49.8474 221.917 50.0111L207.736 82.9801H242.97ZM247.18 43.5385C247.826 43.5385 248.349 44.1116 248.349 44.8196V61.3321C247.879 60.975 247.258 60.7576 246.579 60.7576H234.818C234.602 60.7531 234.392 60.6957 234.22 60.5937C234.048 60.4916 233.921 60.3501 233.859 60.1893L226.696 43.5385H247.18ZM205.054 75.6306L219.037 43.5385H179.827C179.182 43.5385 178.659 44.1116 178.659 44.8196V61.3322C179.129 60.9749 179.75 60.7572 180.43 60.7572H195.559C196.271 60.7572 196.908 61.1349 197.152 61.7021L203.136 75.6253C203.193 75.7884 203.317 75.9326 203.49 76.0356C203.662 76.1387 203.874 76.1948 204.092 76.1954C204.311 76.196 204.523 76.1411 204.697 76.039C204.87 75.9369 204.996 75.7934 205.054 75.6306ZM180.43 65.2532C179.75 65.2532 179.129 65.0358 178.659 64.6788V77.0898C178.659 80.3373 181.071 82.9801 184.037 82.9801H200.534L193.186 65.8233C193.124 65.6621 192.998 65.5202 192.825 65.4178C192.653 65.3154 192.443 65.2578 192.226 65.2532H180.43ZM247.18 36.8794C247.826 36.8794 248.349 36.3068 248.349 35.5994V30.9901C248.349 27.7426 245.936 25.0993 242.97 25.0993H184.037C181.071 25.0993 178.658 27.7425 178.658 30.9901V35.5994C178.658 36.3068 179.182 36.8794 179.827 36.8794H247.18ZM205.085 6.65905C202.119 6.65905 199.706 9.30218 199.706 12.5494V17.1597C199.706 17.8682 200.229 18.4408 200.876 18.4408H226.132C226.778 18.4408 227.302 17.8682 227.302 17.1597V12.5494C227.302 9.30181 224.889 6.65905 221.923 6.65905H205.085Z" fill="#F886D1"/>
<path d="M234.618 134.03C234.183 133.643 233.737 133.247 233.28 132.841L225.244 125.698C223.903 124.506 221.85 124.627 220.658 125.968C219.466 127.308 219.587 129.361 220.928 130.553L229.134 137.847C229.326 138.018 229.517 138.187 229.707 138.356C231.457 136.8 233.087 135.355 234.618 134.03Z" fill="#FBFBFB"/>
<path d="M234.618 142.681C237.443 145.126 239.933 147.162 242.231 148.732C246.024 151.324 249.634 152.892 253.78 152.892C257.927 152.892 261.536 151.324 265.33 148.732C269.007 146.219 273.179 142.511 278.426 137.847L286.633 130.553C287.973 129.361 288.094 127.308 286.902 125.968C285.711 124.627 283.658 124.506 282.317 125.698L274.281 132.841C268.825 137.69 264.959 141.117 261.664 143.369C258.445 145.569 256.117 146.397 253.78 146.397C251.443 146.397 249.115 145.569 245.896 143.369C244.027 142.091 241.973 140.435 239.55 138.356C238.06 139.634 236.431 141.072 234.618 142.681Z" fill="#FBFBFB"/>
<path fill-rule="evenodd" clip-rule="evenodd" d="M237.217 134.046C237.212 134.795 236.885 135.505 236.319 135.994C234.802 137.307 233.184 138.741 231.433 140.298C230.448 141.172 228.965 141.172 227.981 140.298L219.202 132.495C216.788 130.35 216.571 126.655 218.716 124.242C220.861 121.828 224.557 121.611 226.97 123.756L225.244 125.698C223.903 124.506 221.85 124.627 220.658 125.968C219.466 127.308 219.587 129.361 220.928 130.553L229.707 138.356C230.726 137.45 231.704 136.582 232.646 135.753C233.321 135.158 233.978 134.583 234.618 134.03C234.183 133.643 233.737 133.247 233.28 132.841L225.244 125.698L226.97 123.756L235.006 130.899C235.463 131.305 235.909 131.701 236.343 132.087C236.903 132.584 237.222 133.298 237.217 134.046ZM232.02 142.698C232.015 141.949 232.334 141.235 232.893 140.738C234.707 139.129 236.35 137.678 237.858 136.384C238.831 135.548 240.269 135.548 241.242 136.384C243.644 138.445 245.612 140.028 247.363 141.224C250.351 143.266 252.167 143.798 253.78 143.798C255.394 143.798 257.209 143.266 260.198 141.224C263.324 139.088 267.046 135.794 272.554 130.899L280.591 123.756C283.004 121.611 286.699 121.828 288.845 124.242C290.99 126.655 290.772 130.35 288.359 132.495L280.027 139.9C274.884 144.472 270.611 148.27 266.796 150.877C262.773 153.626 258.651 155.491 253.78 155.491C248.91 155.491 244.788 153.626 240.765 150.877C238.341 149.221 235.761 147.106 232.918 144.646C232.352 144.156 232.025 143.446 232.02 142.698ZM239.55 138.356C241.973 140.435 244.027 142.091 245.896 143.369C249.115 145.569 251.443 146.397 253.78 146.397C256.117 146.397 258.445 145.569 261.664 143.369C264.959 141.117 268.825 137.69 274.281 132.841L282.317 125.698C283.658 124.506 285.711 124.627 286.902 125.968C288.094 127.308 287.973 129.361 286.633 130.553L278.426 137.847C273.179 142.511 269.007 146.219 265.33 148.732C261.536 151.324 257.927 152.892 253.78 152.892C249.634 152.892 246.024 151.324 242.231 148.732C240.49 147.542 238.638 146.084 236.614 144.384C235.967 143.841 235.302 143.273 234.618 142.681C235.298 142.078 235.951 141.499 236.581 140.944C237.633 140.017 238.619 139.155 239.55 138.356Z" fill="#F886D1"/>
<path d="M325.316 151.185V159.402H297.305V110.815H305.88V151.185H325.316Z" fill="white"/>
<path d="M340.882 116.317H332.236V107.814H340.882V116.317ZM340.668 159.402H332.45V123.176H340.668V159.402Z" fill="white"/>
<path d="M369.711 130.107C368.52 130.107 367.163 130.392 365.638 130.964C364.114 131.536 362.304 132.655 360.207 134.322V159.402H351.99V123.176H359.779V128.035C362.018 126.082 364.138 124.676 366.138 123.819C368.139 122.914 370.164 122.461 372.212 122.461C375.69 122.461 378.334 123.581 380.144 125.82C381.955 128.011 382.86 131.107 382.86 135.108V159.402H374.642V136.109C374.642 132.107 372.998 130.107 369.711 130.107Z" fill="white"/>
<path d="M415.372 159.402L406.44 144.326C405.011 145.755 403.51 147.184 401.938 148.613V159.402H393.72V106.528H401.938V139.538C404.653 136.775 406.988 134.132 408.941 131.607C410.942 129.035 412.776 126.224 414.443 123.176H423.876C422.303 126.034 420.588 128.749 418.731 131.321C416.873 133.894 414.824 136.49 412.585 139.11L425.305 159.402H415.372Z" fill="white"/>
<path d="M325.316 151.185V159.402H297.305V110.815H305.88V151.185H325.316Z" fill="white"/>
<path d="M340.882 116.317H332.236V107.814H340.882V116.317ZM340.668 159.402H332.45V123.176H340.668V159.402Z" fill="white"/>
<path d="M369.711 130.107C368.52 130.107 367.163 130.392 365.638 130.964C364.114 131.536 362.304 132.655 360.207 134.322V159.402H351.99V123.176H359.779V128.035C362.018 126.082 364.138 124.676 366.138 123.819C368.139 122.914 370.164 122.461 372.212 122.461C375.69 122.461 378.334 123.581 380.144 125.82C381.955 128.011 382.86 131.107 382.86 135.108V159.402H374.642V136.109C374.642 132.107 372.998 130.107 369.711 130.107Z" fill="white"/>
<path d="M415.372 159.402L406.44 144.326C405.011 145.755 403.51 147.184 401.938 148.613V159.402H393.72V106.528H401.938V139.538C404.653 136.775 406.988 134.132 408.941 131.607C410.942 129.035 412.776 126.224 414.443 123.176H423.876C422.303 126.034 420.588 128.749 418.731 131.321C416.873 133.894 414.824 136.49 412.585 139.11L425.305 159.402H415.372Z" fill="white"/>
<path fill-rule="evenodd" clip-rule="evenodd" d="M327.915 148.587V162H294.706V108.217H308.478V148.587H327.915ZM343.481 118.915H329.638V105.216H343.481V118.915ZM343.267 162H329.852V120.578H343.267V162ZM362.377 125.976C361.53 126.577 360.663 127.263 359.779 128.035V123.176H351.99V159.402H360.207V134.322C362.304 132.655 364.114 131.536 365.638 130.964C367.163 130.392 368.52 130.107 369.711 130.107C372.998 130.107 374.642 132.107 374.642 136.109V159.402H382.86V135.108C382.86 131.107 381.955 128.011 380.144 125.82C378.334 123.581 375.69 122.461 372.212 122.461C370.164 122.461 368.139 122.914 366.138 123.819C364.928 124.338 363.675 125.057 362.377 125.976ZM362.377 122.862V120.578H349.391V162H362.806V135.602C364.346 134.462 365.588 133.758 366.551 133.397C367.883 132.897 368.923 132.705 369.711 132.705C370.805 132.705 371.201 133.013 371.401 133.256C371.682 133.598 372.044 134.398 372.044 136.109V162H385.458V135.108C385.458 130.751 384.476 126.989 382.156 124.175C379.75 121.206 376.289 119.863 372.212 119.863C369.777 119.863 367.396 120.402 365.091 121.441C364.19 121.829 363.286 122.304 362.377 122.862ZM413.891 162L405.887 148.491C405.443 148.912 404.993 149.334 404.536 149.756V162H391.122V103.929H404.536V132.892C405.377 131.913 406.16 130.955 406.885 130.017L406.89 130.012C408.8 127.557 410.558 124.864 412.163 121.929L412.902 120.578H428.27L426.152 124.428C424.53 127.377 422.759 130.182 420.837 132.843C419.282 134.995 417.601 137.159 415.793 139.335L430 162H413.891ZM412.585 139.11C414.824 136.49 416.873 133.894 418.731 131.321C420.017 129.541 421.234 127.692 422.383 125.774C422.894 124.922 423.392 124.055 423.876 123.176H414.443C412.776 126.224 410.942 129.035 408.941 131.607C407.641 133.287 406.173 135.019 404.536 136.804C403.713 137.702 402.847 138.614 401.938 139.538V106.528H393.72V159.402H401.938V148.613C402.824 147.807 403.687 147.002 404.528 146.196C405.179 145.573 405.816 144.949 406.44 144.326L415.372 159.402H425.305L412.585 139.11ZM325.316 159.402H297.305V110.815H305.88V151.185H325.316V159.402ZM340.882 116.317V107.814H332.236V116.317H340.882ZM340.668 159.402V123.176H332.45V159.402H340.668Z" fill="#F886D1"/>
<path d="M233.28 143.87C238.736 139.021 242.601 135.594 245.896 133.342C249.115 131.142 251.443 130.314 253.78 130.314C256.117 130.314 258.445 131.142 261.664 133.342C263.534 134.62 265.587 136.276 268.011 138.356C269.5 137.077 271.13 135.639 272.942 134.03C270.117 131.585 267.627 129.549 265.33 127.979C261.536 125.387 257.927 123.819 253.78 123.819C249.634 123.819 246.024 125.387 242.231 127.979C238.553 130.492 234.382 134.2 229.134 138.864L220.928 146.158C219.587 147.35 219.466 149.403 220.658 150.743C221.85 152.084 223.903 152.205 225.244 151.013L233.28 143.87Z" fill="#F886D1"/>
<path d="M277.854 138.356C276.103 139.911 274.474 141.356 272.942 142.681C273.378 143.068 273.823 143.464 274.281 143.87L282.317 151.013C283.658 152.205 285.711 152.084 286.902 150.743C288.094 149.403 287.973 147.35 286.633 146.158L278.426 138.864C278.234 138.693 278.043 138.524 277.854 138.356Z" fill="#F886D1"/>
</svg>
